<?xml version="1.0" encoding="UTF-8"?>
<svg xmlns="http://www.w3.org/2000/svg" xmlns:xlink="http://www.w3.org/1999/xlink" width="1024pt" height="768pt" viewBox="0 0 1024 768" version="1.1">
<g id="surface1">
<rect x="0" y="0" width="1024" height="768" style="fill:rgb(78.431373%,78.431373%,78.431373%);fill-opacity:1;stroke:none;"/>
<rect x="0" y="0" width="1024" height="768" style="fill:rgb(100%,100%,100%);fill-opacity:1;stroke:none;"/>
<path style=" stroke:none;fill-rule:evenodd;fill:rgb(0%,0%,0%);fill-opacity:1;" d="M 254.632812 2.253906 L 325.992188 30.179688 L 318.578125 32.875 L 380.394531 26.546875 L 417.535156 47.910156 L 449.445312 65.390625 L 492.75 56.996094 L 517.109375 86.734375 L 539.71875 78.027344 L 548.742188 78.707031 L 487.625 31.265625 L 528.53125 80.050781 L 514.101562 68.089844 L 481.132812 59.644531 L 450.371094 71.347656 L 373.660156 17.765625 L 404.84375 -4.816406 L 325.5625 31.15625 L 412.71875 98.324219 L 451.90625 118.921875 L 492.59375 105.714844 L 512.660156 128.265625 L 522.609375 131.03125 L 529.066406 130.820312 L 524.902344 125.828125 L 507.378906 129.667969 L 485.832031 107.445312 L 449.261719 107.59375 L 404.558594 90.367188 L 352.898438 75.664062 L 359.058594 78.414062 L 324.460938 120.203125 L 300.398438 80.546875 L 285.679688 110.417969 L 337.660156 163.855469 L 385.746094 137.371094 L 380.863281 82.476562 L 401.367188 31.703125 L 418.238281 69.96875 L 430.199219 117.960938 L 507.285156 163.0625 L 460.5625 68.40625 L 451.007812 62.925781 L 425.667969 20.195312 L 355.730469 72.136719 L 362.867188 166.242188 L 300.621094 98.972656 L 289.636719 89.664062 L 337.453125 48.660156 L 419.269531 76.890625 L 433.101562 29.28125 L 378.761719 85.488281 L 469.433594 147.304688 L 400.191406 78.738281 L 354.027344 104.886719 L 311.410156 85.636719 L 383.429688 121.046875 L 365.199219 83.292969 L 340.757812 49.789062 L 295.003906 45.890625 L 253.4375 14.78125 L 220.964844 9.164062 L 254.914062 27.4375 L 284.570312 44.351562 L 269.472656 3.902344 L 312.160156 3.320312 L 245.253906 63.019531 L 262.625 48.167969 L 339.320312 -33.179688 L 343.089844 12.015625 L 417.460938 -16.035156 L 407.964844 -0.316406 L 368.777344 -24.71875 L 346.75 17.40625 L 306.773438 12.8125 L 315.183594 49.320312 L 283.390625 35.175781 L 250.46875 78.5625 L 221.449219 56.703125 L 223.136719 12.492188 L 219.402344 21.734375 L 264.378906 41.246094 L 301.960938 65.726562 L 219.273438 72.609375 L 181.328125 46.300781 L 167.066406 17.269531 L 135.359375 14.242188 L 104.8125 16.910156 L 82.222656 -8.6875 L 75.003906 -3.144531 L 172.601562 33.949219 L 216.503906 80.558594 L 178.140625 64.457031 L 169.800781 34.460938 L 144.472656 15.207031 L 144.117188 13.253906 L 171.851562 31.667969 L 213.347656 33.527344 L 234.539062 69.042969 L 266.824219 89.035156 L 319.898438 94.242188 L 264.441406 102.664062 L 217.933594 68.394531 L 203.496094 105.234375 L 295.109375 129.441406 L 330.996094 105.164062 L 394.335938 174.742188 L 331.882812 151.492188 L 378.449219 150 L 418.757812 167.164062 L 485.773438 163.617188 L 422.015625 114.257812 L 429.136719 160.464844 L 428.640625 152.296875 L 475.488281 165.414062 L 466.277344 164.589844 L 443.90625 159.957031 L 414.960938 148.148438 L 385.902344 136.839844 L 354.875 120.6875 L 313.949219 113.589844 L 262.804688 100.757812 L 243.617188 83.796875 L 208.398438 102.996094 L 137.140625 63.480469 L 105.339844 37.523438 L 158.832031 61.636719 L 58.902344 23.964844 L 93.460938 50.496094 L 64.644531 23.039062 L 62.464844 16.210938 L 71.835938 27.582031 L 92.523438 39.230469 L 134.144531 55.644531 L 161.90625 75.988281 L 211.550781 104.929688 L 243.511719 133.78125 L 297.320312 139.003906 L 338.886719 144.769531 L 366.566406 176.28125 L 397.621094 185.832031 L 424.53125 202.085938 L 450.574219 211.921875 L 471.328125 209.871094 L 484.351562 214.570312 L 488.121094 214.191406 L 488.9375 209.910156 L 476.460938 216.378906 L 440.679688 196.144531 L 402.488281 197.03125 L 350.503906 164.902344 L 337.554688 175.789062 L 284.941406 150.359375 L 268.605469 135.390625 L 234.148438 130.050781 L 196.53125 115.910156 L 158.238281 106.238281 L 124.75 106.128906 L 114.910156 94.976562 L 94.027344 72.542969 L 111.933594 99.875 L 127.230469 73.347656 L 113.160156 100.246094 L 92.753906 63.921875 L 103.507812 85.0625 L 152.804688 87.875 L 115.675781 99.574219 L 140.609375 105.003906 L 176 128.121094 L 186.933594 159.253906 L 155.753906 155.140625 L 134.785156 170.285156 L 173.40625 131.558594 L 226.984375 188.738281 L 207.515625 116.496094 L 280.160156 140.695312 L 210.410156 124.898438 L 203.007812 209.925781 L 161.878906 109.023438 L 126.292969 166.015625 L 177.109375 175.734375 L 194.078125 148.761719 L 188.980469 94.34375 L 232.394531 158.527344 L 190.054688 196.894531 L 115.367188 158.011719 L 184.316406 141.796875 L 160.398438 156.785156 L 192.679688 167.703125 L 246.539062 178.960938 L 288.917969 193.835938 L 332.847656 211.828125 L 368.269531 227.554688 L 397.566406 240.691406 L 425.90625 257.945312 L 441.722656 251.769531 L 404.335938 249.191406 L 461.613281 254 L 457.769531 260.644531 L 456.441406 251.046875 L 447.382812 254.003906 L 382.683594 231.804688 L 360.757812 240.035156 L 323.40625 192.222656 L 298.53125 190.128906 L 346.535156 170.582031 L 264.0625 167.839844 L 242.445312 127.019531 L 237.898438 160.222656 L 300.625 165.769531 L 270.882812 178.132812 L 211.90625 162.953125 L 237.738281 211.996094 L 252.898438 252.738281 L 284.660156 222.042969 L 324.9375 220.289062 L 371.023438 233.644531 L 295.359375 238.246094 L 274.476562 275.773438 L 230.851562 204.363281 L 266.78125 187.792969 L 263.890625 233.136719 L 272.90625 193.855469 L 372.402344 214.84375 L 344.980469 238.015625 L 301.855469 249.597656 L 330.679688 331.039062 L 328.964844 318.726562 L 410.621094 293.832031 L 421.023438 299.726562 L 370.167969 286.316406 L 342.761719 258.410156 L 329.742188 279.015625 L 332.9375 228.667969 L 358.679688 202.058594 L 265.859375 182.898438 L 276.082031 226.445312 L 301.921875 315.792969 L 386.984375 289.707031 L 349.875 270.113281 L 295.363281 242.902344 L 277.820312 242.363281 L 227.507812 219.738281 L 257.722656 277.132812 L 305.503906 297.570312 L 312.53125 339.609375 L 358.40625 324.566406 L 392.25 329.148438 L 435.691406 304.160156 L 430.515625 336.304688 L 427.265625 344.6875 L 428.140625 343.769531 L 425.039062 334.136719 L 419.015625 298.628906 L 393.425781 288.433594 L 359.871094 271.242188 L 318.074219 257.882812 L 267.542969 275.117188 L 305.332031 312.324219 L 339.597656 322.113281 L 371.414062 347.132812 L 396.253906 368.234375 L 403.203125 387.722656 L 402.351562 401.800781 L 410.101562 390.984375 L 407.503906 380.222656 L 376.421875 380.300781 L 340.382812 371.589844 L 334.484375 405.039062 L 338.398438 427.75 L 349.726562 437.554688 L 346.175781 441.480469 L 334.019531 445.933594 L 346.867188 422.21875 L 339.355469 400.847656 L 323.210938 375.183594 L 277.890625 369.597656 L 260.125 325.359375 L 240.226562 339.972656 L 279.78125 402.222656 L 299.777344 418.1875 L 265.023438 405.105469 L 285.917969 361.363281 L 294.464844 453.253906 L 321.066406 363.476562 L 265.777344 367.695312 L 292.210938 431.566406 L 284.507812 403.480469 L 276.214844 366.546875 L 253.121094 335.460938 L 220.890625 300.035156 L 198.589844 259.800781 L 203.789062 206.714844 L 179.316406 216.324219 L 159.976562 244.90625 L 203.570312 254.867188 L 250.976562 273.339844 L 251.625 196.992188 L 157.394531 235.828125 L 138.703125 272.5 L 211.039062 305.984375 L 269.734375 316.765625 L 331.0625 305.347656 L 271.101562 275.523438 L 222.277344 305.167969 L 210.046875 263.269531 L 163.863281 311.648438 L 188.097656 302.296875 L 236.871094 316.828125 L 276.714844 327.1875 L 227.335938 282.296875 L 203.714844 258.75 L 135.808594 285.855469 L 125.816406 249.195312 L 140.328125 237.855469 L 103.007812 216 L 146.871094 201.441406 L 197.632812 234.34375 L 146.820312 180.644531 L 185.925781 223.019531 L 157.804688 180.214844 L 194.03125 216.660156 L 201.90625 258.609375 L 222.167969 298.117188 L 219.335938 351.265625 L 188.242188 310.921875 L 221.847656 367.609375 L 255.109375 435.53125 L 169.8125 368.417969 L 147.460938 333.222656 L 171.632812 393.203125 L 196.644531 392.160156 L 244.894531 377.058594 L 211.332031 388.347656 L 250.671875 465.816406 L 262.457031 465.308594 L 254.597656 459.972656 L 250.640625 446.285156 L 215.792969 434.035156 L 235.101562 393.667969 L 204.425781 360.378906 L 180.710938 329.753906 L 167.375 286.09375 L 144.871094 249.640625 L 138.316406 194.609375 L 111.660156 237.132812 L 137.585938 155.691406 L 93.335938 178.984375 L 94.863281 154.234375 L 26.804688 61.378906 L 26.769531 41.898438 L 80.03125 122.304688 L 82.859375 147.066406 L 88.355469 185.042969 L 93.378906 126.375 L 125.6875 170.367188 L 148.113281 235.507812 L 127.242188 302.675781 L 182.125 278.929688 L 177.136719 317.339844 L 184.882812 378.867188 L 196.328125 413.484375 L 197.75 447.265625 L 222.824219 468.734375 L 234.132812 480.375 L 209.882812 496.703125 L 209.835938 492.589844 L 202.71875 463.105469 L 195.015625 456.027344 L 164.445312 415.273438 L 143.5625 418.898438 L 197.617188 375.601562 L 128.300781 331.890625 L 113.742188 282.296875 L 195.632812 344.089844 L 153.21875 375.964844 L 184.625 403.179688 L 151.109375 343.738281 L 116.945312 318.171875 L 106.695312 275.300781 L 110.769531 221.207031 L 94.648438 173.4375 L 70.265625 138.203125 L 59.722656 112.507812 L 57.695312 93.285156 L 46.910156 72.402344 L 81.980469 203.511719 L 70.28125 140.898438 L 21.078125 63.726562 L 36.59375 80.453125 L 61.933594 104.484375 L 72.101562 152.964844 L 89.410156 181.535156 L 111.8125 233.816406 L 129.835938 279.113281 L 137.433594 336.199219 L 148.878906 386.175781 L 146.230469 420.351562 L 131.660156 391.015625 L 155.789062 476.71875 L 169.625 471.914062 L 152.980469 482.671875 L 161.246094 518.378906 L 171.195312 510.0625 L 170.710938 493.945312 L 141.949219 476.648438 L 148.035156 443.484375 L 129.25 415.589844 L 112.808594 374.511719 L 114.324219 332.542969 L 79.605469 310.554688 L 59.734375 260.9375 L 58.511719 212.777344 L 38.03125 170.691406 L 18.917969 132.664062 L 18.460938 96.722656 L 12.472656 120.730469 L 25.445312 108.671875 L 3.671875 74.296875 L 21.503906 152.152344 L 9.890625 85.195312 L 15.992188 101.984375 L 26.722656 138.757812 L 33.675781 172.621094 L 46.703125 228.113281 L 66.53125 241.554688 L 82.855469 285.804688 L 109.351562 323.621094 L 80.050781 372.15625 L 63.957031 348.78125 L 41.046875 310.289062 L 22.195312 260.539062 L 8.667969 223.039062 L 7.300781 232.082031 L 26.257812 203.464844 L 52.183594 227.726562 L 44.269531 288.355469 L 20.742188 260.585938 L 55.746094 174.621094 L 54.222656 240.410156 L 53.78125 328.054688 L 58.78125 224.601562 L 12.917969 196.519531 L 45.527344 226.925781 L 76.527344 226.914062 L 4.472656 206.363281 L 30.800781 219.214844 L 21.039062 239.816406 L 12.324219 290.808594 L 30.460938 330.402344 L 63.5 367.222656 L 40.792969 379.15625 L 58.574219 314.132812 L 74.589844 394.730469 L 104.117188 362.285156 L 38.636719 402.613281 L 93.992188 412.675781 L 103.855469 383.808594 L 52.453125 310.277344 L 86.753906 248.113281 L 89.765625 296.753906 L 94.960938 324.96875 L 126.835938 343.488281 L 98.628906 253.332031 L 86.746094 315.273438 L 82.371094 394.082031 L 62.882812 436.941406 L 33.476562 414.265625 L -10.972656 407.164062 L 36.523438 380.398438 L 59.730469 283.117188 L -18.875 342.472656 L 34.421875 320.941406 L -1.769531 329.84375 L 31.445312 371.132812 L 59.433594 412.238281 L 104.058594 426.636719 L 111.582031 464.566406 L 87.566406 427.882812 L 127.144531 484.703125 L 118.164062 522.8125 L 105.386719 515.265625 L 100.699219 470.847656 L 123.308594 506.003906 L 92.75 445.378906 L 95.804688 445.710938 L 63.65625 418.449219 L 18.390625 391.03125 L 3.238281 438.058594 L 5.996094 473.492188 L 54.34375 468.667969 L 51.277344 499.914062 L 73.0625 527.898438 L 81.132812 540.175781 L 21.742188 472.558594 L 55.8125 495.027344 L 75.296875 535.464844 L 81.023438 518.882812 L 74.625 495.722656 L 66.703125 470.585938 L 22.246094 452.238281 L 17.882812 494.183594 L 23.339844 520.046875 L -1.6875 541.414062 L 28.667969 559.5 L -4.957031 563.488281 L 27.667969 563.128906 L -2.980469 554.816406 L -1.269531 545.960938 L -23.054688 521.925781 L -44.144531 495.125 L -83.597656 511.125 L -76.175781 546.285156 L -90.210938 550.316406 L -57.933594 559.21875 L -91.460938 540.191406 L -55.777344 543.402344 L -42.835938 516.796875 L -46.523438 477.261719 L -29.035156 447.867188 L -5.921875 409.066406 L -26.46875 375.578125 L -11.578125 294.898438 L -54.835938 345.363281 L -87.863281 373.628906 L -56.714844 399.75 L -79.550781 454.1875 L -81.613281 495.53125 L -84.21875 502.179688 L -46.230469 472.511719 L -24.109375 471.035156 L -7.554688 449.667969 L -97.457031 418.191406 L -106.105469 373.234375 L -137.867188 411.472656 L -105.746094 368.964844 L -86.960938 410.871094 L -39.890625 410.335938 L 18.386719 396.203125 L 9.476562 461.414062 L -19.90625 446.054688 L -26.660156 387.066406 L -65.421875 417.605469 L -51.664062 446.570312 L -28.960938 400.550781 L -10.664062 350.75 L -36.09375 301.929688 L -69.929688 336.285156 L -66.3125 375.449219 L -91.5 429.429688 L -92.917969 453.046875 L -117.5 411.054688 L -127.226562 489.433594 L -86.285156 487.578125 L -150.75 508.714844 L -133.050781 459.527344 L -105.640625 462.796875 L -136.625 492.066406 L -138.058594 463.457031 L -133.480469 436.503906 L -104.703125 420.8125 L -79.1875 391.976562 L -85.628906 351.890625 L -52.027344 318.273438 L -6.832031 322.75 L -35.253906 252.53125 L -38.925781 266.914062 L -41.832031 250.9375 L -72.175781 226.535156 L -50.617188 305.78125 L -103.371094 304.582031 L -80.398438 335.730469 L -56.226562 304.769531 L -90.910156 273.285156 L -26.515625 267.4375 L 12.046875 336.394531 L 18.710938 359.058594 L -17.242188 380.296875 L -55.207031 340.765625 L -70.3125 335.992188 L -47.59375 220.75 L -5.085938 269.375 L 16.632812 311.296875 L 23.839844 305.488281 L -20.78125 256.75 L -12.632812 299.894531 L -38.539062 333.457031 L -27.289062 221.503906 L -29.109375 247.589844 L -81.429688 291.519531 L -83.613281 248.039062 L -51.90625 190.507812 L -19.914062 158.773438 L -18.894531 120.574219 L -29.398438 90.652344 L 1.183594 151.261719 L -20.234375 189.6875 L -12.835938 114.902344 L -0.410156 198.207031 L -11.792969 176.429688 L -12.855469 150.207031 L -15.265625 178.140625 L -42.539062 208.074219 L -47.878906 257.089844 L -84.09375 286.113281 L -122.695312 317.203125 L -131.589844 382.644531 L -174.210938 387.164062 L -137.558594 345.425781 L -100.78125 319.027344 L -141.507812 297.257812 L -187.792969 336.074219 L -180.824219 402.648438 L -161 381.109375 L -163.292969 421.4375 L -183.101562 483.308594 L -176.960938 502.414062 L -188.761719 496.117188 L -191.652344 408.789062 L -158.96875 501.273438 L -180.617188 480.425781 L -179.242188 446.191406 L -144.90625 433.792969 L -121.527344 382.4375 L -117.097656 329.894531 L -128.503906 359.074219 L -160.851562 372.277344 L -164.453125 331.875 L -87.710938 316.261719 L -95.242188 256.207031 L -146.671875 268.882812 L -98.234375 261.003906 L -73.972656 158.691406 L -64.660156 125.105469 L -74.019531 168.550781 L -56.984375 173.359375 L -52.660156 139.828125 L -74.1875 217.632812 L -29.160156 88.144531 L -62.828125 173.882812 L -38.523438 123.898438 L -58.714844 158.386719 L -83.664062 214 L -120.648438 263.902344 L -106.820312 182.851562 L -105.269531 156.179688 L -71.207031 107.546875 L -53.828125 104.484375 L -65.199219 175.582031 L -66.5625 128.144531 L -91.386719 162.308594 L -112.027344 249.441406 L -110.875 214.445312 L -98.132812 229.757812 L -143.695312 194.511719 L -41.285156 65.398438 L -74.964844 95.617188 L -146.3125 214.921875 L -124.703125 179.328125 L -110.867188 165.214844 L -114.007812 207.234375 L -113.089844 250.703125 L -153.785156 293.402344 L -165.300781 333.410156 L -170.113281 380.597656 L -209.78125 400.097656 L -224.699219 429.9375 L -232.292969 467.433594 L -244.15625 465.3125 L -250.558594 470.445312 L -259.316406 471.628906 L -241.621094 477.925781 L -241.902344 467.980469 L -230.957031 446.597656 L -224.703125 418.382812 L -223.128906 377.8125 L -176.910156 361.074219 L -165.300781 326.089844 L -152.261719 273.464844 L -140.722656 234.863281 L -114.972656 241.066406 L -122.453125 209.375 L -165.347656 171.28125 L -136.3125 136.273438 L -75.613281 64.375 L -40.894531 50.167969 L -40.789062 44.71875 L -35.980469 59.167969 L -91.5 136.195312 L -136.1875 119.324219 L -161.476562 126.703125 L -161.242188 155.179688 L -142.039062 175.816406 L -198.441406 203.542969 L -157.296875 226.984375 L -200.523438 250.398438 L -221.699219 307.621094 L -215.152344 358.222656 L -259.605469 373.59375 L -273.851562 398.191406 L -272.09375 434.273438 L -243.523438 353.851562 L -201.5625 382.15625 L -308.410156 364.046875 L -293.582031 434.972656 L -244.710938 382.4375 L -265.371094 386.472656 L -248.054688 383.644531 L -271.410156 362.929688 L -258.925781 340.253906 L -221.996094 316.671875 L -214.304688 275.777344 L -173.039062 241.398438 L -147.246094 173.566406 L -196.941406 209.816406 L -231.667969 234.769531 L -248.195312 283.347656 L -295.4375 306.820312 L -287.019531 298.683594 L -320.203125 336.558594 L -348.679688 313.285156 L -255.734375 251.722656 L -328.722656 341.441406 L -276.816406 325.5625 L -230.621094 297.3125 L -202.082031 316.957031 L -218.753906 327.996094 L -244.898438 321.507812 L -166.035156 320.492188 L -145.664062 308.890625 L -140.523438 283.136719 L -166.011719 239.289062 L -206.601562 235.296875 L -183.347656 227.5625 L -181.113281 280.78125 L -235.78125 316.648438 L -240.011719 275.546875 L -190.191406 291.863281 L -221.34375 252.878906 L -257.023438 226.28125 L -184.003906 245.128906 L -240.617188 263.210938 L -272.007812 300.949219 L -303.636719 329.324219 L -300.757812 375.074219 L -341.121094 387.421875 L -319.449219 426.589844 L -333.027344 435.144531 L -339.71875 440.871094 L -345.050781 435.421875 L -325.039062 435.882812 L -319.832031 423.351562 L -313.597656 387.875 L -365.648438 366.453125 L -382.832031 402 L -402.277344 371.496094 L -414.132812 392.414062 L -396.851562 405.171875 L -424.507812 375.808594 L -392.867188 362.597656 L -375.320312 365.976562 L -353.976562 351.386719 L -314.523438 287.269531 L -367.492188 286.566406 L -402.519531 306.226562 L -427.1875 310.984375 L -456.066406 288.996094 L -456.070312 313.34375 L -439.074219 320.269531 L -446.222656 310.828125 L -429.304688 319.6875 L -418.359375 294.910156 L -383.519531 303.671875 L -343.773438 312.109375 L -310.90625 292.019531 L -294.421875 255.871094 L -251.085938 229.871094 L -227.46875 178.441406 L -276.472656 174.46875 L -302.28125 203.507812 L -344.050781 210.085938 L -374.570312 245.988281 L -381.230469 271.5625 L -350.632812 229.535156 L -344.40625 244.332031 L -389.980469 229.003906 L -401.457031 283.445312 L -362.976562 275.277344 L -393.902344 217.367188 L -299.328125 246.878906 L -301.273438 247.691406 L -304.765625 195.421875 L -317.394531 171.128906 L -303.390625 174.480469 L -361.515625 213.160156 L -294.222656 224.183594 L -290.53125 280.0625 L -331.117188 304.144531 L -323.15625 289.015625 L -374.847656 243.804688 L -391.230469 247.910156 L -334.886719 237.742188 L -292.777344 237.464844 L -308.582031 199.113281 L -256.296875 208.527344 L -226.289062 170.730469 L -184.339844 147.914062 L -200.289062 131.550781 L -223.816406 150.953125 L -187.152344 135.945312 L -220.78125 199.21875 L -230.402344 115.925781 L -282.265625 190.132812 L -260.882812 248.097656 L -222.285156 170.738281 L -229.882812 191.417969 L -179.628906 114.617188 L -146.046875 149.621094 L -122.464844 126.269531 L -158.214844 167.335938 L -190.625 198.355469 L -260.835938 219.542969 L -207.453125 253.722656 L -171.207031 245.824219 L -222.929688 168.59375 L -191.613281 165.484375 L -191.542969 145.191406 L -254.722656 136.035156 L -211.023438 104.070312 L -158.445312 105.894531 L -124.703125 93.875 L -99.511719 74.300781 L -139.894531 107.988281 L -75.6875 46.625 L -106.121094 72.195312 L -72.054688 56.378906 L -104.394531 83.644531 L -100.042969 51.074219 L -106.539062 81.246094 L -131.21875 82.910156 L -161.671875 82.574219 L -202.625 112.503906 L -245.269531 127.039062 L -294.480469 136.746094 L -340.960938 158.394531 L -375.917969 179.597656 L -408.292969 178.460938 L -427.691406 218.589844 L -461.136719 220.886719 L -472.199219 235.425781 L -484.046875 244 L -484.671875 238.527344 L -472.144531 246.429688 L -442.394531 218.761719 L -442.097656 233.882812 L -385.972656 208.957031 L -383.675781 212.039062 L -324.300781 147.46875 L -310.140625 170.210938 L -270.96875 135.921875 L -279.78125 94.421875 L -344.585938 162.402344 L -249.265625 164.148438 L -264.652344 141.914062 L -232.460938 57.382812 L -198.777344 82.605469 L -217.324219 90.679688 L -218.039062 94.960938 L -143.09375 57.277344 L -114.535156 31.414062 L -98.300781 25.882812 L -123.773438 33.039062 L -140.867188 55.597656 L -100.75 32.921875 L -159.644531 35.9375 L -163.035156 30.589844 L -187.742188 37.398438 L -179.867188 54.523438 L -166.71875 15.054688 L -166.058594 23.820312 L -159.710938 11.453125 L -189.601562 53.332031 L -224.96875 52.097656 L -268.496094 91.679688 L -309.171875 94.578125 L -344.972656 113.125 L -361.785156 137.867188 L -398.472656 133.941406 L -418.605469 162.578125 L -445.140625 187.222656 L -475.957031 181.070312 L -493.71875 175.300781 L -492.519531 169.722656 L -474.6875 185.125 L -429.546875 159.929688 L -437.6875 172.960938 L -352.339844 159.546875 L -350.253906 190.699219 L -282.535156 180.753906 L -311.515625 124.761719 L -295.292969 107.644531 L -243.421875 74.289062 L -253.625 140.269531 L -286.984375 93.335938 L -294.078125 140.28125 L -294.0625 104.640625 L -232.152344 66.488281 L -221.132812 83.046875 L -173.492188 28.28125 L -127.554688 39.304688 L -218.925781 30.417969 L -200.875 58.425781 L -248.875 66.246094 L -241.839844 111.347656 L -264.152344 21.648438 L -226.996094 -32.460938 L -232.796875 -1.984375 L -280.078125 37.082031 L -257.371094 5.617188 L -218.84375 3.046875 L -215.25 14.058594 L -264.785156 22.578125 L -317.78125 53.578125 L -348.957031 32.636719 L -363.246094 71.996094 L -417.921875 97.25 L -408.121094 121.3125 L -450.960938 55.441406 L -406.636719 51.078125 L -356.972656 41.734375 L -325.644531 80.601562 L -320.113281 102.558594 L -391.476562 143.179688 L -424.09375 137.214844 L -413.597656 85.703125 L -456.265625 75.320312 L -414.023438 114.582031 L -395.648438 174.578125 L -371.011719 155.714844 L -335.757812 79.292969 L -325.117188 86.242188 L -367.351562 62.640625 L -429.542969 79.09375 L -401.835938 16.914062 L -446.421875 42.875 L -360.1875 98.472656 L -379.820312 101.675781 L -373.957031 93.316406 L -342.6875 108.636719 L -316.882812 66.5625 L -231.058594 32.246094 L -272.679688 41.214844 L -328.503906 21.605469 L -366.230469 42.550781 L -395.097656 84.902344 L -435.53125 92.71875 L -435.167969 125.496094 L -466.011719 137.609375 L -501.722656 149.804688 L -513.652344 155.785156 L -518.753906 134.597656 L -493.640625 137.140625 L -499.984375 100.308594 L -472.601562 90.925781 L -452.335938 60.074219 L -412.289062 43.839844 L -388.601562 10.691406 L -429.972656 3.097656 L -459.691406 -0.148438 L -414.59375 3.738281 L -494.148438 31.710938 L -517.109375 47.058594 L -532.777344 89.628906 L -539.652344 83.566406 L -541.820312 100.484375 L -536.417969 101.507812 L -507.074219 113.15625 L -485.453125 93.992188 L -470.234375 56.269531 L -517.011719 52.125 L -539.074219 36.113281 L -557.367188 51.066406 L -567.738281 23.808594 L -561.085938 34.769531 L -544.003906 14.265625 L -516.433594 -14.433594 L -541.765625 -46.898438 L -552.273438 -18.5 L -565.257812 -34.628906 L -560.925781 -21.601562 L -541.589844 -22.734375 L -514.945312 -0.3125 L -472.390625 10.960938 L -441.34375 0.09375 L -402.050781 18.679688 L -446.007812 -55.148438 L -478.433594 -37.125 L -514.210938 -61.058594 L -529.535156 -86.292969 L -481.941406 -15.761719 L -544.265625 -84.355469 L -526.003906 -62.472656 L -492.5 -85.390625 L -471.78125 -70.910156 L -486.277344 -35.160156 L -453.082031 -53.050781 L -422.566406 -21.011719 L -361.066406 -33.445312 L -319.570312 -6.933594 L -301.382812 14.144531 L -270.917969 -15.257812 L -268.488281 44.476562 L -318.171875 8.269531 L -360.429688 -6.726562 L -385.453125 -54.089844 L -312.234375 -51.472656 L -326.871094 -72.574219 L -352.382812 -37.261719 L -435.640625 -37.199219 L -442.980469 -14.621094 L -420.828125 12.480469 L -368.59375 14.226562 L -323.898438 18.585938 L -347.425781 29.523438 L -360.347656 8.898438 L -332.691406 -28.949219 L -330.679688 -64.441406 L -225.730469 -37.566406 L -254.785156 -23.121094 L -286.753906 32.328125 L -272.503906 -21.292969 L -314.5625 -6.832031 L -300.417969 50.816406 L -236.78125 -18.164062 L -304.417969 29.148438 L -246.410156 -17.144531 L -304.023438 -25.910156 L -346.121094 -28.105469 L -385.445312 -36.3125 L -407.707031 -76.480469 L -401.054688 -74.300781 L -419.496094 -19.886719 L -470.328125 -81.976562 L -491.179688 -102.320312 L -500.875 -104.089844 L -456.066406 -110.199219 L -427.867188 -49.261719 L -410.097656 -110.324219 L -412.90625 -124.699219 L -418.269531 -81.789062 L -401.605469 -65.078125 L -517.726562 -128.890625 L -498.460938 -129.585938 L -472.175781 -141.058594 L -470.257812 -114.734375 L -428.785156 -111.320312 L -410.632812 -78.332031 L -364.015625 -84.976562 L -329.261719 -68.605469 L -270.132812 -61.734375 L -297.03125 -65.476562 L -339.347656 -51.664062 L -279.417969 -46.722656 L -268.125 -88.769531 L -260.695312 -91.074219 L -189.839844 -71.90625 L -213.109375 -37.273438 L -202.109375 -56.480469 L -176.539062 -20.796875 L -147.070312 -32.089844 L -102.367188 -26.570312 L -58.9375 1.566406 L -61.925781 -15.554688 L -96.027344 5.609375 L -149.800781 3.480469 L -166.121094 -12.707031 L -220.875 -9.175781 L -215.1875 -25.148438 L -264.488281 -47.253906 L -292.890625 -64.007812 L -344.621094 -53.835938 L -315.464844 -75.824219 L -353.5 -123.933594 L -373.625 -80.625 L -432.25 -119.75 L -454.445312 -131.085938 L -487.496094 -155.25 L -491.625 -176.019531 L -508.3125 -168.886719 L -521.082031 -154.832031 L -511.550781 -185.597656 L -488.550781 -196.230469 L -467.53125 -183.425781 L -430.015625 -167.828125 L -387.644531 -150.292969 L -381.210938 -98.34375 L -407.742188 -133.875 L -335.945312 -154.425781 L -308.910156 -118.046875 L -284.691406 -134.425781 L -342.933594 -131.320312 L -346.046875 -145.164062 L -330.199219 -137.070312 L -291.710938 -96.21875 L -245.71875 -111.617188 L -224.378906 -61.699219 L -173.554688 -65.816406 L -139.964844 -34.523438 L -100.363281 -24.796875 L -86.296875 -24.480469 L -78.371094 -16.84375 L -58.140625 -27.269531 L -145.625 -41.214844 L -73.628906 -29.992188 L -99.921875 -25.089844 L -129.371094 -53.460938 L -167.027344 -53.210938 L -187.425781 -91.855469 L -229.570312 -83.476562 L -253.394531 -110.125 L -293.78125 -113.601562 L -330.410156 -115.535156 L -366.121094 -122.601562 L -404.789062 -141.445312 L -432.394531 -175.019531 L -458.890625 -193.550781 L -434.269531 -197.359375 L -488.441406 -220.175781 L -423.449219 -172.367188 L -397.765625 -225.132812 L -447.402344 -234.917969 L -424.046875 -227.578125 L -411.746094 -202.542969 L -375.128906 -184.882812 L -332.863281 -169.3125 L -287.074219 -153.824219 L -236.683594 -157.070312 L -197.082031 -125.34375 L -158.160156 -102.960938 L -130.707031 -84.128906 L -110.65625 -62.347656 L -116.660156 -91.636719 L -58.96875 -47.667969 L -53.953125 -41.613281 L -142.109375 -60.070312 L -175.507812 -109.898438 L -230.269531 -85.65625 L -214.003906 -119.851562 L -173.792969 -53.417969 L -164.273438 -64.054688 L -180.003906 -90.917969 L -214.839844 -101.628906 L -228.339844 -164.085938 L -256.117188 -79.289062 L -244.398438 -110.722656 L -300.8125 -112.054688 L -307.683594 -155.117188 L -284.328125 -99.015625 L -340.804688 -165.066406 L -239.511719 -138.96875 L -276.527344 -165.257812 L -289.441406 -142.75 L -351.765625 -173.632812 L -388.960938 -202.636719 L -401.507812 -206.46875 L -441.023438 -235.226562 L -347.140625 -227.152344 L -378.390625 -149.25 L -371.082031 -147.863281 L -358.804688 -231.753906 L -393.230469 -199.664062 L -474.789062 -244.046875 L -473.601562 -265.035156 L -452.65625 -291.921875 L -427.363281 -288.703125 L -427.882812 -285.058594 L -416.234375 -265.800781 L -381.78125 -253.71875 L -348.746094 -216.246094 L -303.285156 -204.574219 L -259.191406 -173.6875 L -211.460938 -187.078125 L -204.46875 -138.265625 L -162.441406 -146.398438 L -146.007812 -108.367188 L -101.785156 -97.726562 L -88.398438 -66.855469 L -83.148438 -67.804688 L -150.550781 -108.855469 L -104.378906 -103.375 L -213.742188 -168.707031 L -173.867188 -102.746094 L -238.367188 -178.507812 L -211.332031 -206.476562 L -171.421875 -163.808594 L -191.304688 -140.253906 L -246.59375 -131.730469 L -263.40625 -178.785156 L -300.675781 -227.042969 L -257.042969 -204.222656 L -285.535156 -238.800781 L -331.917969 -232.351562 L -374.3125 -244.476562 L -381.925781 -264.507812 L -439.984375 -272.019531 L -348.269531 -247.875 L -328.1875 -190.117188 L -336.265625 -208.171875 L -371.484375 -252.773438 L -349.53125 -286.644531 L -349.808594 -305.308594 L -447.179688 -305.617188 L -427.160156 -333.402344 L -401.558594 -347.386719 L -312.265625 -336.039062 L -335.164062 -282.402344 L -394.621094 -317.59375 L -355.5625 -307.972656 L -339.082031 -278.601562 L -285.492188 -250.917969 L -246.539062 -214.714844 L -299.855469 -296.347656 L -290.878906 -314.421875 L -334.769531 -348.242188 L -378.144531 -366.890625 L -323.519531 -362.40625 L -406.023438 -382.003906 L -380.609375 -390.496094 L -412.472656 -376.125 L -434.734375 -330.773438 L -415.574219 -324.03125 L -393.03125 -320.542969 L -359.15625 -304.246094 L -313.625 -277.882812 L -318.433594 -321.84375 L -352.785156 -353.757812 L -322.804688 -386.429688 L -361.800781 -400.234375 L -381.996094 -407.113281 L -325.105469 -442.382812 L -346.863281 -444.105469 L -338.964844 -448.6875 L -347.417969 -423.714844 L -339.457031 -401.515625 L -300.269531 -384.699219 L -281.15625 -357.238281 L -227.847656 -340.390625 L -251.484375 -299.996094 L -205.621094 -258.875 L -252.90625 -239.90625 L -208.878906 -273.671875 L -211.101562 -227.164062 L -183.242188 -202.945312 L -195.777344 -253.351562 L -249.285156 -185.859375 L -307.707031 -205.101562 L -303.714844 -254.046875 L -251.976562 -311.265625 L -266.75 -348.8125 L -268.597656 -257.347656 L -299.175781 -205.457031 L -267.8125 -199.9375 L -258.332031 -144.355469 L -252.0625 -247.675781 L -198.050781 -234.644531 L -237.46875 -274.769531 L -258.496094 -301.039062 L -226.953125 -332.820312 L -176.957031 -322.371094 L -168.550781 -282.96875 L -174.074219 -281.066406 L -220.394531 -306.503906 L -214.5625 -265.363281 L -290.152344 -234.449219 L -325.222656 -323.996094 L -276.039062 -360.8125 L -284.652344 -318.117188 L -265.722656 -292.296875 L -267.910156 -256.082031 L -237.585938 -219.085938 L -210.820312 -191.769531 L -172.773438 -151.207031 L -122.394531 -138.992188 L -119.097656 -172.476562 L -157.710938 -195.097656 L -184.382812 -233.980469 L -199.128906 -274.316406 L -226.109375 -308.40625 L -273.046875 -326.355469 L -268.496094 -364.925781 L -269.566406 -397.898438 L -297.121094 -424.121094 L -280.792969 -399.179688 L -249.40625 -396.296875 L -298.941406 -460.476562 L -274.832031 -475 L -298.808594 -438.023438 L -263.390625 -430.894531 L -247.148438 -395.734375 L -209.867188 -359.148438 L -163.925781 -331.871094 L -206.457031 -301.695312 L -161.769531 -273.617188 L -184.996094 -229.527344 L -133.644531 -200.886719 L -184.726562 -186.226562 L -151.457031 -168.082031 L -147.417969 -129.804688 L -90.367188 -102.683594 L -122.308594 -147.082031 L -164.105469 -152.554688 L -177.414062 -209.046875 L -150.03125 -148.90625 L -80.996094 -136.527344 L -117.242188 -181.449219 L -160.6875 -208.996094 L -158.59375 -243.351562 L -145.648438 -249.027344 L -95.761719 -227.167969 L -69.378906 -192.039062 L -82.046875 -109.351562 L -103.863281 -158.835938 L -114.082031 -202.355469 L -115.675781 -144.609375 L -121.410156 -245.183594 L -153.683594 -278.023438 L -125.402344 -338.855469 L -172.875 -349.589844 L -154.890625 -302.777344 L -88.304688 -256.457031 L -85.175781 -314.246094 L -107.320312 -286.351562 L -133.796875 -330.726562 L -146.902344 -397.019531 L -198.238281 -401.238281 L -213.335938 -319.386719 L -197.511719 -383.007812 L -207.894531 -410.441406 L -212.6875 -448.507812 L -245.777344 -402.085938 L -219.449219 -472.128906 L -237.246094 -488.632812 L -240.832031 -486.457031 L -236.84375 -470.453125 L -243.753906 -429.867188 L -222.28125 -404.523438 L -196.964844 -351.070312 L -218.050781 -346.714844 L -184.625 -327.84375 L -141.382812 -276.824219 L -147.019531 -332.867188 L -118.75 -292.085938 L -124.277344 -222.800781 L -83.105469 -139.65625 L -61.460938 -106.808594 L -82.445312 -165.722656 L -98.769531 -213.78125 L -140.519531 -235.65625 L -117.429688 -282.316406 L -103.886719 -229.945312 L -84.085938 -201.65625 L -75.082031 -201.398438 L -58.53125 -116.566406 L -70.476562 -132.40625 L -33.71875 -74.507812 L -51.25 -101.132812 L -53.492188 -182.703125 L -61.242188 -142.640625 L -77.53125 -177.789062 L -96.636719 -211.605469 L -99.09375 -252.410156 L -118.605469 -288.832031 L -139.636719 -324.335938 L -138.003906 -365.054688 L -166.207031 -396.128906 L -149.390625 -435.367188 L -169.957031 -456.160156 L -190.644531 -478.898438 L -178.273438 -487.480469 L -150.625 -455.628906 L -193.925781 -487.621094 L -157.070312 -413.800781 L -181.121094 -390.324219 L -150.046875 -368.753906 L -190.734375 -472.574219 L -186.78125 -441.328125 L -185.507812 -408.171875 L -148.527344 -385.882812 L -139.285156 -342.363281 L -103.832031 -304.390625 L -95.300781 -263.546875 L -66.863281 -219.191406 L -55.179688 -181.878906 L -31.066406 -155.046875 L -30.363281 -104.21875 L -20.886719 -86.160156 L -28.988281 -83.664062 L -16.101562 -63.296875 L -15.535156 -52.035156 L -27.789062 -141.914062 L -18.46875 -116.886719 L -12.390625 -118.839844 L -22.597656 -155.625 L -31.601562 -192.871094 L -12.785156 -217.617188 L -30.203125 -256.914062 L -57.785156 -294.730469 L -80.355469 -323.078125 L -75.148438 -385.359375 L -118.296875 -406.519531 L -91.375 -452.296875 L -125.339844 -474.8125 L -96.464844 -486.347656 L -133.742188 -514.054688 L -134.769531 -528.390625 L -153.5625 -528.734375 L -143.222656 -513.527344 L -137.910156 -492.753906 L -136.292969 -467.269531 L -129.121094 -423.511719 L -101.023438 -403.441406 L -95.523438 -358.738281 L -51.039062 -328.90625 L -42.617188 -276.175781 L -17.558594 -237.109375 L -27.9375 -215.859375 L -49.363281 -227.886719 L -69.121094 -261.050781 L -58.71875 -303.144531 L -58.734375 -361.183594 L -105.507812 -352.371094 L -75.492188 -367.484375 L -108.71875 -373.558594 L -74.890625 -290.726562 L -81.996094 -295.027344 L -22.6875 -202.847656 L -22.753906 -278.277344 L -17.660156 -225.53125 L -10.457031 -183.320312 L 31.238281 -227.234375 L -8.410156 -240.554688 L -40.085938 -188.417969 L -27.1875 -275.664062 L -56.664062 -313.507812 L -33.023438 -365.8125 L -16.988281 -359.800781 L -69.519531 -388.058594 L -111.765625 -410.175781 L -108.308594 -393.394531 L -64.664062 -407.777344 L -73.191406 -358.925781 L -57.917969 -265.4375 L -20.90625 -357.820312 L 17.757812 -253.890625 L -4.15625 -299.679688 L -17.558594 -310.457031 L -45.363281 -348.640625 L -32.699219 -397.074219 L -35.578125 -441.90625 L -43.503906 -480.828125 L -84.671875 -499.648438 L -76.511719 -533.183594 L -62.5625 -481.292969 L -78.152344 -448.285156 L -95.628906 -535.238281 L -75.242188 -461.6875 L -86.867188 -432.027344 L -31.003906 -412.582031 L -80.515625 -444.378906 L -49.46875 -360.996094 L -52.207031 -429.402344 L -47.976562 -477.136719 L -63.367188 -502.066406 L -32.230469 -532.789062 L -56.261719 -547.351562 L -49.382812 -564.648438 L -9.039062 -548.273438 L -50.414062 -556.347656 L -22.140625 -545.246094 L -1.777344 -525.644531 L 12.558594 -495.761719 L 55.199219 -518.75 L 53.65625 -544.09375 L 74.640625 -553.085938 L 35.566406 -560.691406 L 48.621094 -558.816406 L 48.945312 -553.3125 L 5.101562 -525.890625 L 29.496094 -510.460938 L 23.90625 -481.863281 L 13.21875 -443.175781 L -9.050781 -401.101562 L -4.175781 -350.183594 L -4.023438 -288.671875 L 30.785156 -345.765625 L -9.1875 -321.339844 L 44.960938 -361.394531 L 0.105469 -426.917969 L 50.347656 -406.570312 L 38.097656 -393.53125 L 49.539062 -437.3125 L 77.488281 -473.386719 L 66.890625 -496.277344 L 91.410156 -530.238281 L 73.441406 -472.917969 L 64.917969 -457.695312 L 4.101562 -468.027344 L 113.703125 -430.09375 L -5.25 -415.300781 L 7.464844 -322.648438 L 52.953125 -385.976562 L 109.695312 -384.355469 L 57.152344 -381.753906 L -5.527344 -360.984375 L -14.652344 -464.125 L -36.574219 -443.242188 L 19.585938 -419.765625 L -2.203125 -432.171875 L 39.621094 -437.828125 L 43.085938 -391.234375 L 13.175781 -356.253906 L 35.308594 -300.816406 L 71.394531 -332.789062 L 87.914062 -386.070312 L 90.230469 -442.167969 L 37.675781 -428.429688 L 93.925781 -487.644531 L 36.976562 -469.265625 L 127.933594 -512.210938 L 134.4375 -517.824219 L 134.121094 -520.125 L 143.28125 -512.976562 L 126.976562 -498.699219 L 125.472656 -472.554688 L 120.800781 -442.777344 L 102.394531 -416.035156 L 83.601562 -384.851562 L 59.457031 -348.765625 L 46.386719 -305.632812 L 14.605469 -299.136719 L 32.792969 -246.746094 L 42.808594 -243.027344 L 15.640625 -311.265625 L 83.679688 -250.273438 L 93.832031 -295.457031 L 97.296875 -340.429688 L 74.71875 -383.785156 L 101.472656 -337.257812 L 54.773438 -298.875 L 61.824219 -249.039062 L 90.65625 -261.289062 L 73.785156 -290.832031 L 71.589844 -239.855469 L 47.871094 -190.136719 L 28.773438 -195.714844 L -15.386719 -267.753906 L -18.945312 -209.816406 L -9.589844 -261.785156 L 49.675781 -291.347656 L 73.777344 -217.933594 L 72.421875 -364.582031 L 43.367188 -329.304688 L 19.414062 -348.175781 L 54.480469 -302.125 L 60.882812 -273.25 L 56.417969 -234.703125 L 55.195312 -196.976562 L 18.914062 -217.007812 L 31.636719 -135.472656 L 28.195312 -98.742188 L 15.683594 -75.5 L 10.476562 -59.496094 L 16.324219 -69.601562 L 1.222656 -142.125 L 14.507812 -68.773438 L 7.085938 -165.804688 L 10.441406 -156.0625 L 23.144531 -137.199219 L 14.40625 -187.273438 L 50.476562 -211.859375 L 55.515625 -255.253906 L 80.707031 -311.164062 L 125.320312 -281.722656 L 139.46875 -336 L 122.324219 -354.164062 L 118.34375 -378.5 L 175.679688 -436.464844 L 137.136719 -411.917969 L 169.375 -479.035156 L 193.019531 -487.859375 L 192.148438 -495.722656 L 145.730469 -417.386719 L 173.371094 -486.757812 L 114.953125 -449.429688 L 123.757812 -458.277344 L 132.53125 -424.195312 L 179.574219 -452.910156 L 201.820312 -465.160156 L 217.246094 -385.089844 L 214.601562 -478.335938 L 198.890625 -402.417969 L 198.71875 -452.457031 L 219.074219 -457.308594 L 207.523438 -444.636719 L 204.683594 -412.355469 L 191.335938 -383.832031 L 169.285156 -353.179688 L 142.753906 -307.589844 L 114.671875 -274.613281 L 95.839844 -226.148438 L 70.949219 -156.808594 L 57.476562 -123.328125 L 34.507812 -106.730469 L 81.167969 -200.167969 L 69.3125 -207.265625 L 44.40625 -137.601562 L 81.71875 -169.058594 L 39.238281 -150.394531 L 48.632812 -163.082031 L 61.78125 -136.59375 L 59.925781 -173.808594 L 86.265625 -264.105469 L 110.925781 -328.609375 L 133.621094 -290.378906 L 150.632812 -303.621094 L 94.007812 -371.746094 L 167.945312 -375.382812 L 131.472656 -372.832031 L 122.9375 -322.421875 L 141.894531 -377.769531 L 185.261719 -407.074219 L 210.125 -416.425781 L 205.035156 -364.773438 L 164.660156 -334.40625 L 133.742188 -287.355469 L 138.476562 -239.402344 L 105.089844 -257.296875 L 106.003906 -203.023438 L 114.660156 -232.5625 L 122.175781 -181.160156 L 118.621094 -138.035156 L 51.007812 -95.179688 L 124.4375 -185.777344 L 92.421875 -120.523438 L 120.230469 -175.214844 L 112.523438 -134.183594 L 104.960938 -173.335938 L 106.359375 -132.308594 L 110.796875 -179.644531 L 145.316406 -238.957031 L 158.351562 -196.953125 L 207.042969 -280.84375 L 159.222656 -202.191406 L 202.050781 -157.125 L 208.433594 -199.484375 L 163.300781 -246.933594 L 137.910156 -107.328125 L 160.34375 -229.691406 L 143.785156 -265.859375 L 123.296875 -246.386719 L 173.09375 -214.097656 L 181.804688 -186.832031 L 195.691406 -126.300781 L 181.257812 -150.664062 L 131.296875 -159.59375 L 209.867188 -184.121094 L 124.859375 -154.167969 L 152.121094 -201.808594 L 171.675781 -235.464844 L 220.363281 -262.996094 L 177.9375 -267.578125 L 218.449219 -324.050781 L 240.511719 -276.757812 L 203.5625 -323.367188 L 182.800781 -288.582031 L 258.375 -344.015625 L 258.414062 -365.363281 L 213.816406 -331.027344 L 181.660156 -318.472656 L 163.210938 -262.421875 L 173.757812 -375.566406 L 174.09375 -281.976562 L 143.269531 -331.230469 L 227.125 -367.84375 L 191.511719 -339.007812 L 225.742188 -312.492188 L 239.046875 -354.984375 L 248.761719 -382.984375 L 243.078125 -342.699219 L 198.273438 -320.730469 L 174.992188 -277.1875 L 192.550781 -225.402344 L 225.773438 -263.558594 L 255.925781 -296.929688 L 289.839844 -326.972656 L 284.96875 -352.277344 L 322.609375 -376.847656 L 270.347656 -410.207031 L 254.246094 -437.945312 L 275.195312 -442.964844 L 275.796875 -456.675781 L 271.503906 -458.4375 L 260.902344 -453.957031 L 276.859375 -423.082031 L 254.984375 -400.332031 L 259.890625 -353.121094 L 292.128906 -377.980469 L 330.578125 -405.238281 L 308.371094 -437.164062 L 308.550781 -373.640625 L 323.75 -454.902344 L 349.757812 -433.144531 L 327.992188 -435.832031 L 304.738281 -435.332031 L 350.003906 -403.710938 L 374.1875 -371.875 L 403.875 -373.0625 L 409.210938 -389.398438 L 389.1875 -413.59375 L 393.621094 -402.785156 L 385.40625 -395.949219 L 365.304688 -381.8125 L 354.21875 -355.15625 L 318.847656 -325.09375 L 279.460938 -309.164062 L 362.234375 -305.175781 L 396.371094 -320.464844 L 425.882812 -313.195312 L 421.535156 -346.664062 L 437.792969 -334.371094 L 384.714844 -342.660156 L 431.734375 -329.519531 L 414.699219 -319.460938 L 377.433594 -325.027344 L 331.507812 -338.269531 L 334.261719 -297.847656 L 302.039062 -268.398438 L 257.730469 -231.453125 L 238.679688 -235.539062 L 257.980469 -274.914062 L 267.105469 -184.554688 L 296.480469 -249.386719 L 317.492188 -297.324219 L 327.558594 -321.433594 L 341.347656 -284.691406 L 298.046875 -240.542969 L 269.515625 -209.113281 L 237.039062 -160.640625 L 255.710938 -162.773438 L 265.03125 -195.191406 L 257.859375 -242.101562 L 217.777344 -276.714844 L 250.308594 -277.042969 L 277.71875 -344.042969 L 294.121094 -329.699219 L 333.390625 -308.945312 L 304.648438 -308.695312 L 279.144531 -254.511719 L 282.035156 -185.28125 L 239.328125 -171.214844 L 261.480469 -224.464844 L 239.78125 -273.144531 L 205.316406 -133.816406 L 195.664062 -224.710938 L 200.046875 -226.230469 L 122.628906 -151.777344 L 151.949219 -127.921875 L 181.71875 -166.082031 L 195.632812 -204.03125 L 251.359375 -264.777344 L 288.628906 -241.199219 L 314.417969 -275.117188 L 321.183594 -230.65625 L 351.863281 -250.257812 L 406.027344 -279.050781 L 383.027344 -254.167969 L 330.101562 -266.183594 L 419.332031 -272.453125 L 452.421875 -301.941406 L 395.371094 -256.164062 L 437.308594 -297.015625 L 452.535156 -263.023438 L 410.246094 -267.394531 L 349.980469 -274.609375 L 358.363281 -248.902344 L 314.785156 -223.492188 L 281.414062 -196.84375 L 235.738281 -194.890625 L 204.726562 -172.902344 L 163.472656 -143.359375 L 151.050781 -114.628906 L 160.921875 -153.878906 L 88.347656 -106.136719 L 46.550781 -68.65625 L 61.566406 -70.714844 L 106.839844 -93.730469 L 106.003906 -99.128906 L 59.664062 -71.449219 L 87.777344 -91.421875 L 164.914062 -139.503906 L 126.234375 -107.050781 L 198.5 -113.441406 L 223.570312 -146.5 L 230.964844 -200.695312 L 271.183594 -183.992188 L 318.441406 -201.460938 L 359.898438 -219.566406 L 402.003906 -221.144531 L 428.027344 -233.550781 L 461.097656 -226.511719 L 454.019531 -260.410156 L 476.488281 -245.75 L 473.050781 -261.351562 L 486.625 -233.890625 L 489.773438 -218.804688 L 467.757812 -223.8125 L 436.039062 -212.183594 L 387.933594 -230.632812 L 367.65625 -195.039062 L 329.953125 -170.128906 L 296.210938 -142.714844 L 259.660156 -137.84375 L 229.929688 -142.5 L 189.757812 -109.164062 L 180.890625 -75.410156 L 114.429688 -74.070312 L 87.75 -53.0625 L 66.722656 -32.117188 L 60.253906 -23.996094 L 61.832031 -36.886719 L 140.820312 -67.976562 L 193.675781 -94.5 L 75.300781 -55.1875 L 92.96875 -57.230469 L 152.152344 -70.527344 L 168.109375 -76.15625 L 241.488281 -99.066406 L 243.625 -116.199219 L 280.808594 -144.78125 L 322.097656 -140.871094 L 353.648438 -170.6875 L 407.492188 -172.203125 L 375.535156 -126.914062 L 335.140625 -111.265625 L 284.40625 -91.484375 L 233.050781 -69.980469 L 197.847656 -46.6875 L 152.835938 -33.464844 L 145.136719 -12.992188 L 90.15625 -20.6875 L 139.511719 -27.15625 L 128.304688 -34.730469 L 151.039062 -47.644531 L 181.730469 -89.847656 L 123.835938 -48.628906 L 117.070312 -27.082031 L 166.839844 -28.332031 L 195.46875 -54.894531 L 228.3125 -73.480469 L 270.46875 -89.265625 L 237.609375 -136.179688 L 315.265625 -115.628906 L 340.335938 -138.707031 L 394.777344 -158.347656 L 432.027344 -171.863281 L 442.640625 -169.070312 L 351.65625 -174.078125 L 369.898438 -219.304688 L 317.46875 -190.570312 L 298.886719 -153.113281 L 287.355469 -160.878906 L 312.652344 -167.699219 L 338.464844 -217.757812 L 356.402344 -236.234375 L 377.359375 -169.109375 L 427.023438 -171.359375 L 428.75 -193.820312 L 403.53125 -172.089844 L 354.789062 -199.613281 L 330.929688 -183.804688 L 308.59375 -142.902344 L 380.546875 -166.84375 L 404.382812 -172.847656 L 431.136719 -132.015625 L 458.019531 -144.773438 L 474.164062 -172.539062 L 446.960938 -185.253906 L 499.738281 -177.382812 L 502.453125 -174.652344 L 428.09375 -104.851562 L 368.910156 -120.648438 L 455.140625 -52.597656 L 426.941406 -81.355469 L 420.371094 -102.570312 L 368.75 -121.476562 L 330.210938 -125.488281 L 301.925781 -76.113281 L 279.695312 -102.511719 L 343.207031 -55.832031 L 287.539062 -86.371094 L 351.585938 -44.164062 L 396.257812 -45.210938 L 358.28125 -83.246094 L 321.964844 -84.53125 L 302.6875 -50.988281 L 243.746094 -101.226562 L 199.679688 -97.867188 L 251.042969 -78.007812 L 257.050781 0.976562 L 201.039062 -55.285156 L 262.660156 -45.960938 L 233.347656 -9.128906 L 222.804688 -17.234375 L 180.742188 -6.800781 L 129.789062 -16.480469 L 154.277344 -4.058594 L 176.671875 17.632812 L 240.910156 -30.09375 L 227.554688 -7.246094 L 194.386719 2.707031 L 224.542969 -27.265625 L 194.148438 -86.5625 L 189.0625 -57.398438 L 215.257812 -67.964844 L 265.148438 -109.4375 L 281.167969 -73.230469 L 328.195312 -52.453125 L 324.371094 -8.949219 L 282.101562 -88.933594 L 279.007812 -27 L 235.457031 -35.824219 L 249.023438 -28.03125 L 298.289062 -51.519531 L 330.945312 -63.929688 L 382.542969 -70.859375 L 375.757812 -85.164062 L 344.019531 -111.660156 L 382.832031 -100.277344 L 379.464844 -59.121094 L 451.589844 -57.597656 L 458.027344 -21.46875 L 436.121094 -93.011719 L 491.128906 -144.304688 L 515.238281 -116.53125 L 506.378906 -133.175781 L 516.597656 -143.375 L 484.429688 -154.328125 L 481.914062 -133.726562 L 392.300781 -131.8125 L 415.746094 -105.667969 L 393.230469 -104.003906 L 356.496094 -80.007812 L 317.878906 -53.328125 L 275.941406 -45.613281 L 283.671875 5.140625 L 304.277344 1.074219 L 363.207031 -40.019531 L 399.296875 -64.484375 L 443.898438 -72.867188 L 472.417969 -90.976562 L 508.394531 -81.402344 L 516.726562 -119.71875 L 533.9375 -76.351562 L 537.265625 -87.394531 L 540.238281 -93.277344 L 530.703125 -70.335938 L 503.8125 -82.894531 L 478.089844 -87.496094 L 423.773438 -85.835938 L 422.542969 -46.363281 L 460.558594 -37.996094 L 499.574219 -36.753906 L 527.9375 -30.941406 L 548.386719 -13.949219 L 552.277344 -32.460938 L 561.585938 -30.089844 L 559.855469 -42.050781 L 541.328125 -47.902344 L 518.898438 -24.472656 L 486.0625 -43.804688 L 452.378906 -28.960938 L 413.335938 -9.039062 L 368.75 15.203125 L 412.859375 33.203125 L 457.210938 24.535156 L 490.011719 16.460938 L 520.183594 11.90625 L 543.582031 33.066406 L 556.117188 24.699219 L 560.074219 30.445312 L 557.007812 25.347656 L 541.476562 40.261719 L 492.734375 11.683594 L 483.617188 12.578125 L 452.191406 12.285156 L 417.003906 -15.523438 L 383.917969 -10.902344 L 391.242188 -2.132812 L 350.3125 -18.058594 L 307.421875 -13.082031 "/>
</g>
</svg>
